<mxfile host="Electron" agent="Mozilla/5.0 (X11; Linux x86_64) AppleWebKit/537.36 (KHTML, like Gecko) draw.io/28.0.6 Chrome/138.0.7204.185 Electron/37.2.6 Safari/537.36" version="28.0.6">
  <diagram name="Page-1" id="emL6tRKWqTxsLJyRZY7Z">
    <mxGraphModel dx="1302" dy="723" grid="1" gridSize="10" guides="1" tooltips="1" connect="1" arrows="1" fold="1" page="1" pageScale="1" pageWidth="850" pageHeight="1100" math="0" shadow="0">
      <root>
        <mxCell id="0" />
        <mxCell id="1" parent="0" />
        <mxCell id="BJl_eby5c20-PDwryn3F-8" value="" style="edgeStyle=orthogonalEdgeStyle;rounded=0;orthogonalLoop=1;jettySize=auto;html=1;strokeColor=#0B4D6A;strokeWidth=5;endArrow=none;endFill=0;" edge="1" parent="1" source="BJl_eby5c20-PDwryn3F-1" target="BJl_eby5c20-PDwryn3F-2">
          <mxGeometry relative="1" as="geometry" />
        </mxCell>
        <mxCell id="BJl_eby5c20-PDwryn3F-1" value="invert(int x)" style="ellipse;whiteSpace=wrap;html=1;strokeColor=#BAC8D3;fontColor=#EEEEEE;fillColor=#09555B;" vertex="1" parent="1">
          <mxGeometry x="490" y="302" width="120" height="80" as="geometry" />
        </mxCell>
        <mxCell id="BJl_eby5c20-PDwryn3F-10" value="" style="edgeStyle=orthogonalEdgeStyle;shape=connector;rounded=0;orthogonalLoop=1;jettySize=auto;html=1;strokeColor=#0B4D6A;strokeWidth=5;align=center;verticalAlign=middle;fontFamily=Helvetica;fontSize=11;fontColor=default;labelBackgroundColor=default;endArrow=none;endFill=0;" edge="1" parent="1" source="BJl_eby5c20-PDwryn3F-2" target="BJl_eby5c20-PDwryn3F-3">
          <mxGeometry relative="1" as="geometry" />
        </mxCell>
        <mxCell id="BJl_eby5c20-PDwryn3F-2" value="p&amp;nbsp; = 0" style="rounded=0;whiteSpace=wrap;html=1;strokeColor=#BAC8D3;fontColor=#EEEEEE;fillColor=#09555B;" vertex="1" parent="1">
          <mxGeometry x="490" y="422" width="120" height="60" as="geometry" />
        </mxCell>
        <mxCell id="BJl_eby5c20-PDwryn3F-11" style="edgeStyle=orthogonalEdgeStyle;shape=connector;rounded=0;orthogonalLoop=1;jettySize=auto;html=1;exitX=1;exitY=0.5;exitDx=0;exitDy=0;entryX=0.5;entryY=0;entryDx=0;entryDy=0;strokeColor=#0B4D6A;strokeWidth=5;align=center;verticalAlign=middle;fontFamily=Helvetica;fontSize=11;fontColor=default;labelBackgroundColor=default;endArrow=none;endFill=0;" edge="1" parent="1" source="BJl_eby5c20-PDwryn3F-3" target="BJl_eby5c20-PDwryn3F-4">
          <mxGeometry relative="1" as="geometry" />
        </mxCell>
        <mxCell id="BJl_eby5c20-PDwryn3F-12" value="ДА" style="edgeLabel;html=1;align=center;verticalAlign=middle;resizable=0;points=[];strokeColor=#BAC8D3;fontFamily=Helvetica;fontSize=11;fontColor=default;labelBackgroundColor=default;fillColor=#09555B;" vertex="1" connectable="0" parent="BJl_eby5c20-PDwryn3F-11">
          <mxGeometry x="-0.5031" y="6" relative="1" as="geometry">
            <mxPoint as="offset" />
          </mxGeometry>
        </mxCell>
        <mxCell id="BJl_eby5c20-PDwryn3F-13" style="edgeStyle=orthogonalEdgeStyle;shape=connector;rounded=0;orthogonalLoop=1;jettySize=auto;html=1;exitX=0;exitY=0.5;exitDx=0;exitDy=0;entryX=0.5;entryY=0;entryDx=0;entryDy=0;strokeColor=#0B4D6A;strokeWidth=5;align=center;verticalAlign=middle;fontFamily=Helvetica;fontSize=11;fontColor=default;labelBackgroundColor=default;endArrow=none;endFill=0;" edge="1" parent="1" source="BJl_eby5c20-PDwryn3F-3" target="BJl_eby5c20-PDwryn3F-5">
          <mxGeometry relative="1" as="geometry" />
        </mxCell>
        <mxCell id="BJl_eby5c20-PDwryn3F-28" value="НЕТ" style="edgeLabel;html=1;align=center;verticalAlign=middle;resizable=0;points=[];strokeColor=#BAC8D3;fontFamily=Helvetica;fontSize=11;fontColor=default;labelBackgroundColor=default;fillColor=#09555B;" vertex="1" connectable="0" parent="BJl_eby5c20-PDwryn3F-13">
          <mxGeometry x="-0.5999" y="-2" relative="1" as="geometry">
            <mxPoint as="offset" />
          </mxGeometry>
        </mxCell>
        <mxCell id="BJl_eby5c20-PDwryn3F-3" value="x == 0" style="rhombus;whiteSpace=wrap;html=1;strokeColor=#BAC8D3;fontColor=#EEEEEE;fillColor=#09555B;" vertex="1" parent="1">
          <mxGeometry x="490" y="522" width="120" height="80" as="geometry" />
        </mxCell>
        <mxCell id="BJl_eby5c20-PDwryn3F-4" value="return p" style="ellipse;whiteSpace=wrap;html=1;strokeColor=#BAC8D3;fontColor=#EEEEEE;fillColor=#09555B;" vertex="1" parent="1">
          <mxGeometry x="631" y="642" width="120" height="80" as="geometry" />
        </mxCell>
        <mxCell id="BJl_eby5c20-PDwryn3F-14" value="" style="edgeStyle=orthogonalEdgeStyle;shape=connector;rounded=0;orthogonalLoop=1;jettySize=auto;html=1;strokeColor=#0B4D6A;strokeWidth=5;align=center;verticalAlign=middle;fontFamily=Helvetica;fontSize=11;fontColor=default;labelBackgroundColor=default;endArrow=none;endFill=0;" edge="1" parent="1" source="BJl_eby5c20-PDwryn3F-5" target="BJl_eby5c20-PDwryn3F-6">
          <mxGeometry relative="1" as="geometry" />
        </mxCell>
        <mxCell id="BJl_eby5c20-PDwryn3F-5" value="p = p * 10" style="rounded=0;whiteSpace=wrap;html=1;strokeColor=#BAC8D3;fontColor=#EEEEEE;fillColor=#09555B;" vertex="1" parent="1">
          <mxGeometry x="360" y="652" width="120" height="60" as="geometry" />
        </mxCell>
        <mxCell id="BJl_eby5c20-PDwryn3F-15" value="" style="edgeStyle=orthogonalEdgeStyle;shape=connector;rounded=0;orthogonalLoop=1;jettySize=auto;html=1;strokeColor=#0B4D6A;strokeWidth=5;align=center;verticalAlign=middle;fontFamily=Helvetica;fontSize=11;fontColor=default;labelBackgroundColor=default;endArrow=none;endFill=0;" edge="1" parent="1" source="BJl_eby5c20-PDwryn3F-6" target="BJl_eby5c20-PDwryn3F-7">
          <mxGeometry relative="1" as="geometry" />
        </mxCell>
        <mxCell id="BJl_eby5c20-PDwryn3F-6" value="p = p + (x % 10)" style="rounded=0;whiteSpace=wrap;html=1;strokeColor=#BAC8D3;fontColor=#EEEEEE;fillColor=#09555B;" vertex="1" parent="1">
          <mxGeometry x="360" y="752" width="120" height="60" as="geometry" />
        </mxCell>
        <mxCell id="BJl_eby5c20-PDwryn3F-16" style="edgeStyle=orthogonalEdgeStyle;shape=connector;rounded=0;orthogonalLoop=1;jettySize=auto;html=1;exitX=0.5;exitY=1;exitDx=0;exitDy=0;strokeColor=#0B4D6A;strokeWidth=5;align=center;verticalAlign=middle;fontFamily=Helvetica;fontSize=11;fontColor=default;labelBackgroundColor=default;endArrow=classic;endFill=1;movable=1;resizable=1;rotatable=1;deletable=1;editable=1;locked=0;connectable=1;entryX=0.5;entryY=0;entryDx=0;entryDy=0;" edge="1" parent="1" source="BJl_eby5c20-PDwryn3F-7" target="BJl_eby5c20-PDwryn3F-3">
          <mxGeometry relative="1" as="geometry">
            <mxPoint x="270" y="532" as="targetPoint" />
            <Array as="points">
              <mxPoint x="420" y="962" />
              <mxPoint x="270" y="962" />
              <mxPoint x="270" y="522" />
            </Array>
          </mxGeometry>
        </mxCell>
        <mxCell id="BJl_eby5c20-PDwryn3F-7" value="x = x / 10" style="rounded=0;whiteSpace=wrap;html=1;strokeColor=#BAC8D3;fontColor=#EEEEEE;fillColor=#09555B;" vertex="1" parent="1">
          <mxGeometry x="360" y="842" width="120" height="60" as="geometry" />
        </mxCell>
        <mxCell id="BJl_eby5c20-PDwryn3F-18" value="A" style="text;html=1;align=center;verticalAlign=middle;resizable=0;points=[];autosize=1;strokeColor=none;fillColor=none;fontFamily=Helvetica;fontSize=11;fontColor=default;labelBackgroundColor=default;" vertex="1" parent="1">
          <mxGeometry x="405" y="220" width="30" height="30" as="geometry" />
        </mxCell>
        <mxCell id="BJl_eby5c20-PDwryn3F-19" value="B" style="text;html=1;align=center;verticalAlign=middle;resizable=0;points=[];autosize=1;strokeColor=none;fillColor=none;fontFamily=Helvetica;fontSize=11;fontColor=default;labelBackgroundColor=default;" vertex="1" parent="1">
          <mxGeometry x="535" y="220" width="30" height="30" as="geometry" />
        </mxCell>
        <mxCell id="BJl_eby5c20-PDwryn3F-20" value="C" style="text;html=1;align=center;verticalAlign=middle;resizable=0;points=[];autosize=1;strokeColor=none;fillColor=none;fontFamily=Helvetica;fontSize=11;fontColor=default;labelBackgroundColor=default;" vertex="1" parent="1">
          <mxGeometry x="676" y="220" width="30" height="30" as="geometry" />
        </mxCell>
        <mxCell id="BJl_eby5c20-PDwryn3F-21" value="1" style="text;html=1;align=center;verticalAlign=middle;resizable=0;points=[];autosize=1;strokeColor=none;fillColor=none;fontFamily=Helvetica;fontSize=11;fontColor=default;labelBackgroundColor=default;" vertex="1" parent="1">
          <mxGeometry x="155" y="327" width="30" height="30" as="geometry" />
        </mxCell>
        <mxCell id="BJl_eby5c20-PDwryn3F-22" value="2" style="text;html=1;align=center;verticalAlign=middle;resizable=0;points=[];autosize=1;strokeColor=none;fillColor=none;fontFamily=Helvetica;fontSize=11;fontColor=default;labelBackgroundColor=default;" vertex="1" parent="1">
          <mxGeometry x="155" y="437" width="30" height="30" as="geometry" />
        </mxCell>
        <mxCell id="BJl_eby5c20-PDwryn3F-23" value="3" style="text;html=1;align=center;verticalAlign=middle;resizable=0;points=[];autosize=1;strokeColor=none;fillColor=none;fontFamily=Helvetica;fontSize=11;fontColor=default;labelBackgroundColor=default;" vertex="1" parent="1">
          <mxGeometry x="155" y="550" width="30" height="30" as="geometry" />
        </mxCell>
        <mxCell id="BJl_eby5c20-PDwryn3F-24" value="4" style="text;html=1;align=center;verticalAlign=middle;resizable=0;points=[];autosize=1;strokeColor=none;fillColor=none;fontFamily=Helvetica;fontSize=11;fontColor=default;labelBackgroundColor=default;" vertex="1" parent="1">
          <mxGeometry x="155" y="667" width="30" height="30" as="geometry" />
        </mxCell>
        <mxCell id="BJl_eby5c20-PDwryn3F-25" value="5" style="text;html=1;align=center;verticalAlign=middle;resizable=0;points=[];autosize=1;strokeColor=none;fillColor=none;fontFamily=Helvetica;fontSize=11;fontColor=default;labelBackgroundColor=default;" vertex="1" parent="1">
          <mxGeometry x="155" y="767" width="30" height="30" as="geometry" />
        </mxCell>
        <mxCell id="BJl_eby5c20-PDwryn3F-26" value="6" style="text;html=1;align=center;verticalAlign=middle;resizable=0;points=[];autosize=1;strokeColor=none;fillColor=none;fontFamily=Helvetica;fontSize=11;fontColor=default;labelBackgroundColor=default;" vertex="1" parent="1">
          <mxGeometry x="155" y="857" width="30" height="30" as="geometry" />
        </mxCell>
      </root>
    </mxGraphModel>
  </diagram>
</mxfile>
